<?xml version="1.0" encoding="UTF-8" standalone="no"?>
<svg width="400" height="200" viewBox="0 0 400 200" xmlns="http://www.w3.org/2000/svg">
  <!-- Background crack pattern -->
  <defs>
    <radialGradient id="crackGradient" cx="50%" cy="50%" r="50%" fx="50%" fy="50%">
      <stop offset="0%" style="stop-color:white;stop-opacity:0.8" />
      <stop offset="70%" style="stop-color:white;stop-opacity:0.3" />
      <stop offset="100%" style="stop-color:white;stop-opacity:0" />
    </radialGradient>
  </defs>
  
  <!-- Crack lines -->
  <g stroke="#888" stroke-width="0.5" fill="none">
    <path d="M200,100 L240,30" />
    <path d="M200,100 L280,70" />
    <path d="M200,100 L300,110" />
    <path d="M200,100 L260,150" />
    <path d="M200,100 L220,180" />
    <path d="M200,100 L150,170" />
    <path d="M200,100 L100,130" />
    <path d="M200,100 L120,80" />
    <path d="M200,100 L160,40" />
    <path d="M200,100 L70,50" />
    <path d="M200,100 L50,110" />
  </g>
  
  <!-- Radial gradient for crack effect -->
  <circle cx="200" cy="100" r="80" fill="url(#crackGradient)" />
  
  <!-- Text with 3D effect -->
  <g>
    <!-- Shadow layer -->
    <text x="50" y="90" font-family="Arial, sans-serif" font-size="48" font-weight="bold" fill="#9a3109" transform="skewX(-5)">CRACKED</text>
    <text x="50" y="140" font-family="Arial, sans-serif" font-size="48" font-weight="bold" fill="#9a3109" transform="skewX(-5)">PROMPTS</text>
    
    <!-- Main text -->
    <text x="50" y="85" font-family="Arial, sans-serif" font-size="48" font-weight="bold" fill="#E24B0F" transform="skewX(-5)">CRACKED</text>
    <text x="50" y="135" font-family="Arial, sans-serif" font-size="48" font-weight="bold" fill="#E24B0F" transform="skewX(-5)">PROMPTS</text>
  </g>
</svg> 