<svg width="100" height="100" viewBox="0 0 100 100" fill="none" xmlns="http://www.w3.org/2000/svg">
  <path d="M50 10C27.9086 10 10 27.9086 10 50C10 72.0914 27.9086 90 50 90C72.0914 90 90 72.0914 90 50C90 27.9086 72.0914 10 50 10ZM50 20C66.5685 20 80 33.4315 80 50C80 66.5685 66.5685 80 50 80C33.4315 80 20 66.5685 20 50C20 33.4315 33.4315 20 50 20Z" fill="black"/>
  <path d="M50 30C38.9543 30 30 38.9543 30 50C30 61.0457 38.9543 70 50 70C61.0457 70 70 61.0457 70 50C70 38.9543 61.0457 30 50 30ZM50 40C55.5228 40 60 44.4772 60 50C60 55.5228 55.5228 60 50 60C44.4772 60 40 55.5228 40 50C40 44.4772 44.4772 40 50 40Z" fill="black"/>
</svg> 